<svg width="216" height="64" viewBox="0 0 216 64" fill="none" xmlns="http://www.w3.org/2000/svg">
<path d="M208 0H8C3.58172 0 0 3.58172 0 8V56C0 60.4183 3.58172 64 8 64H208C212.418 64 216 60.4183 216 56V8C216 3.58172 212.418 0 208 0Z" fill="#E87525"/>
<path d="M51.3806 30.9008C51.3364 25.9874 55.4037 23.597 55.5897 23.4857C53.2862 20.1272 49.7159 19.6684 48.4612 19.6318C45.4625 19.3162 42.5538 21.4261 41.0263 21.4261C39.4682 21.4261 37.116 19.6623 34.5807 19.7141C31.3183 19.7644 28.2663 21.6533 26.5924 24.5864C23.1379 30.5669 25.7143 39.3556 29.024 44.1898C30.6796 46.5573 32.6141 49.2008 35.1463 49.1078C37.6236 49.0057 38.549 47.5284 41.5385 47.5284C44.5006 47.5284 45.3695 49.1078 47.952 49.0483C50.6107 49.0057 52.2846 46.6701 53.8823 44.2813C55.7955 41.5677 56.5639 38.8952 56.5944 38.758C56.5319 38.7367 51.4309 36.7899 51.3806 30.9008Z" fill="white"/>
<path d="M46.5023 16.4514C47.8347 14.7851 48.7463 12.5182 48.4932 10.2178C46.5648 10.3031 44.153 11.5517 42.7642 13.1814C41.5355 14.6175 40.4378 16.9713 40.7214 19.1848C42.8877 19.3464 45.1119 18.0918 46.5023 16.4514Z" fill="white"/>
<path d="M87.2317 48.7674H83.7695L81.8731 42.8082H75.2812L73.4746 48.7674H70.104L76.6349 28.4795H80.6687L87.2317 48.7674ZM81.3014 40.308L79.5863 35.0104C79.4049 34.4692 79.065 33.1947 78.5634 31.1885H78.5024C78.3027 32.0514 77.981 33.3258 77.5389 35.0104L75.8544 40.308H81.3014Z" fill="white"/>
<path d="M104.027 41.2728C104.027 43.7608 103.354 45.7274 102.01 47.1711C100.805 48.4562 99.3098 49.098 97.5246 49.098C95.5976 49.098 94.2134 48.4059 93.3703 47.0217H93.3094V54.728H90.0592V38.9541C90.0592 37.39 90.018 35.7847 89.9387 34.1382H92.7971L92.9786 36.457H93.0395C94.1234 34.7099 95.7684 33.8379 97.9758 33.8379C99.7016 33.8379 101.142 34.5193 102.295 35.8838C103.45 37.2497 104.027 39.0455 104.027 41.2728ZM100.715 41.3917C100.715 39.9679 100.395 38.794 99.7519 37.8702C99.0491 36.9067 98.1054 36.425 96.9224 36.425C96.1205 36.425 95.3918 36.6933 94.7409 37.2223C94.0884 37.7558 93.6615 38.4525 93.4618 39.3154C93.3612 39.7178 93.3109 40.0471 93.3109 40.3063V42.7455C93.3109 43.8096 93.6371 44.7075 94.2896 45.4408C94.9421 46.1741 95.7897 46.5399 96.8325 46.5399C98.0566 46.5399 99.0094 46.0673 99.6909 45.1252C100.374 44.1816 100.715 42.9376 100.715 41.3917Z" fill="white"/>
<path d="M120.853 41.2728C120.853 43.7608 120.18 45.7274 118.834 47.1711C117.632 48.4562 116.136 49.098 114.351 49.098C112.424 49.098 111.04 48.4059 110.198 47.0217H110.137V54.728H106.887V38.9541C106.887 37.39 106.846 35.7847 106.766 34.1382H109.625L109.806 36.457H109.867C110.95 34.7099 112.595 33.8379 114.804 33.8379C116.528 33.8379 117.968 34.5193 119.124 35.8838C120.275 37.2497 120.853 39.0455 120.853 41.2728ZM117.542 41.3917C117.542 39.9679 117.22 38.794 116.577 37.8702C115.874 36.9067 114.933 36.425 113.749 36.425C112.945 36.425 112.218 36.6933 111.566 37.2223C110.913 37.7558 110.488 38.4525 110.288 39.3154C110.189 39.7178 110.137 40.0471 110.137 40.3063V42.7455C110.137 43.8096 110.463 44.7075 111.113 45.4408C111.765 46.1725 112.613 46.5399 113.659 46.5399C114.883 46.5399 115.836 46.0673 116.517 45.1252C117.2 44.1816 117.542 42.9376 117.542 41.3917Z" fill="white"/>
<path d="M139.665 43.0779C139.665 44.8036 139.066 46.2077 137.863 47.2916C136.541 48.4761 134.701 49.0676 132.337 49.0676C130.154 49.0676 128.404 48.6469 127.079 47.8038L127.832 45.0948C129.259 45.9577 130.825 46.3906 132.53 46.3906C133.755 46.3906 134.707 46.1132 135.392 45.5613C136.073 45.0094 136.413 44.2685 136.413 43.3447C136.413 42.5215 136.133 41.8278 135.57 41.2653C135.011 40.7028 134.076 40.1799 132.771 39.6966C129.219 38.3718 127.445 36.4311 127.445 33.8791C127.445 32.2114 128.067 30.8439 129.312 29.7798C130.553 28.7142 132.209 28.1821 134.279 28.1821C136.125 28.1821 137.659 28.5038 138.883 29.1456L138.07 31.7952C136.927 31.1732 135.634 30.8622 134.188 30.8622C133.044 30.8622 132.151 31.1442 131.511 31.7052C130.969 32.2068 130.698 32.8181 130.698 33.5422C130.698 34.3441 131.007 35.0073 131.629 35.5286C132.171 36.0104 133.154 36.5318 134.581 37.0943C136.326 37.7971 137.609 38.6188 138.433 39.5609C139.255 40.5 139.665 41.6754 139.665 43.0779Z" fill="white"/>
<path d="M150.411 36.5774H146.828V43.68C146.828 45.4865 147.46 46.389 148.725 46.389C149.306 46.389 149.787 46.3387 150.169 46.2381L150.258 48.7062C149.618 48.9456 148.775 49.066 147.731 49.066C146.447 49.066 145.444 48.6742 144.72 47.8922C143.999 47.1086 143.636 45.7945 143.636 43.9483V36.5744H141.502V34.1352H143.636V31.4566L146.828 30.4932V34.1352H150.411V36.5774Z" fill="white"/>
<path d="M166.575 41.3327C166.575 43.5813 165.932 45.4275 164.648 46.8712C163.302 48.3576 161.515 49.0985 159.288 49.0985C157.142 49.0985 155.433 48.3865 154.158 46.9627C152.884 45.5388 152.247 43.7414 152.247 41.5751C152.247 39.3082 152.902 37.4514 154.218 36.0077C155.53 34.5625 157.302 33.8398 159.529 33.8398C161.676 33.8398 163.403 34.5518 164.706 35.9772C165.953 37.3599 166.575 39.1451 166.575 41.3327ZM163.203 41.4379C163.203 40.0887 162.915 38.9316 162.331 37.9666C161.65 36.7989 160.675 36.2165 159.413 36.2165C158.107 36.2165 157.114 36.8004 156.433 37.9666C155.849 38.9332 155.561 40.1085 155.561 41.4989C155.561 42.8481 155.849 44.0051 156.433 44.9686C157.136 46.1364 158.117 46.7187 159.384 46.7187C160.625 46.7187 161.599 46.1242 162.302 44.9381C162.901 43.9548 163.203 42.7856 163.203 41.4379Z" fill="white"/>
<path d="M177.14 36.9966C176.818 36.9372 176.475 36.9067 176.115 36.9067C174.972 36.9067 174.088 37.3381 173.466 38.2025C172.925 38.9647 172.653 39.9282 172.653 41.0914V48.7672H169.404L169.435 38.7452C169.435 37.0591 169.394 35.524 169.313 34.1397H172.144L172.263 36.9387H172.353C172.696 35.9768 173.237 35.2023 173.978 34.6215C174.702 34.0986 175.484 33.8379 176.327 33.8379C176.627 33.8379 176.899 33.8592 177.14 33.8973V36.9966Z" fill="white"/>
<path d="M191.676 40.7607C191.676 41.3431 191.638 41.8339 191.557 42.2349H181.806C181.844 43.6801 182.315 44.7854 183.221 45.5476C184.043 46.229 185.105 46.5705 186.41 46.5705C187.854 46.5705 189.171 46.3403 190.356 45.8784L190.865 48.1347C189.481 48.7384 187.846 49.0387 185.96 49.0387C183.692 49.0387 181.911 48.371 180.616 47.037C179.323 45.7031 178.675 43.9118 178.675 41.6647C178.675 39.4588 179.277 37.6218 180.483 36.1567C181.745 34.5926 183.451 33.8105 185.598 33.8105C187.706 33.8105 189.302 34.5926 190.386 36.1567C191.244 37.3992 191.676 38.9359 191.676 40.7607ZM188.576 39.9177C188.598 38.9542 188.386 38.1218 187.945 37.419C187.383 36.515 186.518 36.0637 185.355 36.0637C184.293 36.0637 183.428 36.5043 182.768 37.3885C182.227 38.0913 181.905 38.9344 181.806 39.9161H188.576V39.9177Z" fill="white"/>
<path d="M81.7561 23.5216H80.0655V20.9997H73.31V23.5216H71.5911L71.5348 19.5767H72.359C72.7675 19.1823 73.0939 18.6093 73.3381 17.8579C73.5823 17.1018 73.7397 16.2471 73.8101 15.2938L74.0778 10.7432H80.5445V19.5767H81.8477L81.7561 23.5216ZM74.3736 19.5767H78.7693V12.1802H75.7755L75.6064 15.0684C75.4796 16.9985 75.0687 18.5013 74.3736 19.5767Z" fill="white"/>
<path d="M83.4214 17.1183C83.4214 16.3716 83.5693 15.7 83.8652 15.1036C84.161 14.5025 84.5766 14.0423 85.112 13.7229C85.6474 13.3989 86.2626 13.2369 86.9576 13.2369C87.9861 13.2369 88.8197 13.5679 89.4583 14.2301C90.1017 14.8923 90.4492 15.7705 90.5009 16.8647L90.5079 17.2662C90.5079 18.0176 90.3624 18.6892 90.0712 19.2809C89.7847 19.8726 89.3715 20.3305 88.8314 20.6545C88.296 20.9786 87.6761 21.1406 86.9717 21.1406C85.8963 21.1406 85.0345 20.7837 84.3864 20.0698C83.7431 19.3513 83.4214 18.3956 83.4214 17.2028V17.1183ZM85.1331 17.2662C85.1331 18.0505 85.2952 18.6657 85.6192 19.1118C85.9432 19.5533 86.3941 19.774 86.9717 19.774C87.5493 19.774 87.9978 19.5486 88.3172 19.0977C88.6412 18.6469 88.8032 17.9871 88.8032 17.1183C88.8032 16.3481 88.6365 15.7376 88.3031 15.2867C87.9743 14.8359 87.5259 14.6105 86.9576 14.6105C86.3988 14.6105 85.955 14.8336 85.6262 15.2797C85.2975 15.7211 85.1331 16.3833 85.1331 17.2662Z" fill="white"/>
<path d="M95.8081 19.774C96.2354 19.774 96.59 19.6495 96.8718 19.4006C97.1536 19.1517 97.3038 18.8441 97.3226 18.4778H98.9358C98.917 18.9521 98.7691 19.3959 98.492 19.8092C98.2149 20.2178 97.8392 20.5418 97.3649 20.7813C96.8906 21.0208 96.3787 21.1406 95.8292 21.1406C94.7632 21.1406 93.9179 20.7954 93.2933 20.1051C92.6687 19.4147 92.3564 18.4614 92.3564 17.2451V17.069C92.3564 15.909 92.6663 14.9815 93.2862 14.2865C93.9061 13.5867 94.7514 13.2369 95.8222 13.2369C96.7285 13.2369 97.4659 13.5022 98.0341 14.0329C98.607 14.5588 98.9076 15.2515 98.9358 16.1109H97.3226C97.3038 15.6742 97.1536 15.3149 96.8718 15.0332C96.5947 14.7514 96.2401 14.6105 95.8081 14.6105C95.2539 14.6105 94.8266 14.8124 94.526 15.2163C94.2255 15.6155 94.0728 16.2236 94.0681 17.0408V17.3155C94.0681 18.142 94.2161 18.7596 94.5119 19.1682C94.8125 19.572 95.2445 19.774 95.8081 19.774Z" fill="white"/>
<path d="M106.948 14.7373H104.475V20.9997H102.764V14.7373H100.319V13.3777H106.948V14.7373Z" fill="white"/>
<path d="M111.565 18.5483L113.115 13.3777H114.939L111.91 22.155C111.445 23.437 110.656 24.0781 109.543 24.0781C109.294 24.0781 109.019 24.0358 108.719 23.9513V22.6269L109.043 22.6481C109.475 22.6481 109.799 22.5682 110.015 22.4086C110.236 22.2536 110.41 21.9906 110.536 21.6196L110.783 20.9645L108.106 13.3777H109.952L111.565 18.5483Z" fill="white"/>
<path d="M123.113 20.9997H121.402V14.7584H118.429V20.9997H116.717V13.3777H123.113V20.9997Z" fill="white"/>
<path d="M132.112 20.9997H130.4V17.9213H127.434V20.9997H125.722V13.3777H127.434V16.5547H130.4V13.3777H132.112V20.9997Z" fill="white"/>
<path d="M134.34 17.1183C134.34 16.3716 134.488 15.7 134.784 15.1036C135.08 14.5025 135.496 14.0423 136.031 13.7229C136.567 13.3989 137.182 13.2369 137.877 13.2369C138.905 13.2369 139.739 13.5679 140.377 14.2301C141.021 14.8923 141.368 15.7705 141.42 16.8647L141.427 17.2662C141.427 18.0176 141.282 18.6892 140.99 19.2809C140.704 19.8726 140.291 20.3305 139.751 20.6545C139.215 20.9786 138.595 21.1406 137.891 21.1406C136.815 21.1406 135.954 20.7837 135.306 20.0698C134.662 19.3513 134.34 18.3956 134.34 17.2028V17.1183ZM136.052 17.2662C136.052 18.0505 136.214 18.6657 136.538 19.1118C136.862 19.5533 137.313 19.774 137.891 19.774C138.468 19.774 138.917 19.5486 139.236 19.0977C139.56 18.6469 139.722 17.9871 139.722 17.1183C139.722 16.3481 139.556 15.7376 139.222 15.2867C138.893 14.8359 138.445 14.6105 137.877 14.6105C137.318 14.6105 136.874 14.8336 136.545 15.2797C136.217 15.7211 136.052 16.3833 136.052 17.2662Z" fill="white"/>
<path d="M148.04 20.9997V13.3777H151.133C152.175 13.3777 152.969 13.5609 153.514 13.9272C154.058 14.2888 154.331 14.8101 154.331 15.491C154.331 15.8432 154.22 16.1602 154 16.442C153.784 16.7191 153.462 16.9328 153.035 17.083C153.533 17.1864 153.927 17.3953 154.218 17.71C154.509 18.0246 154.655 18.3956 154.655 18.823C154.655 19.5321 154.392 20.0722 153.866 20.4432C153.345 20.8142 152.593 20.9997 151.612 20.9997H148.04ZM149.752 17.7523V19.6472H151.626C152.504 19.6472 152.943 19.3325 152.943 18.7032C152.943 18.0693 152.497 17.7523 151.605 17.7523H149.752ZM149.752 16.5265H151.161C152.133 16.5265 152.619 16.2401 152.619 15.6671C152.619 15.066 152.159 14.7561 151.238 14.7373H149.752V16.5265Z" fill="white"/>
</svg>
