<svg width="14" height="14" viewBox="0 0 14 14" fill="none" xmlns="http://www.w3.org/2000/svg">
<path fill-rule="evenodd" clip-rule="evenodd" d="M9.33331 7C9.33331 8.28864 8.28861 9.33333 6.99997 9.33333C5.71129 9.33333 4.66663 8.28864 4.66663 7C4.66663 5.71134 5.71129 4.66667 6.99997 4.66667C8.28861 4.66667 9.33331 5.71134 9.33331 7ZM8.16664 7C8.16664 7.64435 7.64426 8.16667 6.99997 8.16667C6.35562 8.16667 5.83329 7.64435 5.83329 7C5.83329 6.35565 6.35562 5.83333 6.99997 5.83333C7.64426 5.83333 8.16664 6.35565 8.16664 7Z" fill="#E87525"/>
<path fill-rule="evenodd" clip-rule="evenodd" d="M6.99994 1.75C10.2617 1.75 13.0023 3.98085 13.7794 7C13.0023 10.0192 10.2617 12.25 6.99994 12.25C3.73821 12.25 0.997535 10.0192 0.220459 7C0.997535 3.98085 3.73821 1.75 6.99994 1.75ZM6.99994 11.0833C4.38918 11.0833 2.17653 9.36722 1.43331 7C2.17653 4.63275 4.38918 2.91667 6.99994 2.91667C9.61065 2.91667 11.8234 4.63275 12.5665 7C11.8234 9.36722 9.61065 11.0833 6.99994 11.0833Z" fill="#E87525"/>
</svg>
