<svg width="20" height="20" viewBox="0 0 20 20" fill="none" xmlns="http://www.w3.org/2000/svg">
<path d="M11.8333 2.39584C10.8111 2.39584 9.83079 2.80191 9.10796 3.5247C8.38521 4.2475 7.97913 5.22782 7.97913 6.25001V8.39584H5.91663C5.81308 8.39584 5.72913 8.47976 5.72913 8.58334V11.4167C5.72913 11.5203 5.81308 11.6042 5.91663 11.6042H7.97913V17.4167C7.97913 17.5203 8.06308 17.6042 8.16663 17.6042H11C11.1035 17.6042 11.1875 17.5203 11.1875 17.4167V11.6042H13.2682C13.3543 11.6042 13.4293 11.5456 13.4501 11.4622L14.1585 8.62884C14.188 8.51051 14.0985 8.39584 13.9765 8.39584H11.1875V6.25001C11.1875 6.07873 11.2555 5.91445 11.3766 5.79333C11.4977 5.67222 11.662 5.60418 11.8333 5.60418H14C14.1035 5.60418 14.1875 5.52023 14.1875 5.41668V2.58334C14.1875 2.47979 14.1035 2.39584 14 2.39584H11.8333Z" fill="black" fill-opacity="0.2"/>
</svg>
