<svg width="154" height="30" viewBox="0 0 154 30" fill="none" xmlns="http://www.w3.org/2000/svg">
<path d="M16.4064 23.5833C11.8749 23.6852 7.69862 19.9609 7.7024 14.9122C7.70617 9.87857 11.8824 6.22977 16.4253 6.23732C21.0135 6.24864 25.1217 10.0144 25.1028 14.9575C25.0839 19.8401 21.0135 23.6814 16.4064 23.5833Z" fill="#E87525"/>
<path d="M23.096 29.8922C22.2948 28.1112 22.771 25.9943 24.2941 24.7718C27.2231 22.421 29.0108 18.8363 29.0259 14.9838C29.041 11.1237 27.2496 7.51259 24.2827 5.13163C22.7596 3.90907 22.2948 1.78846 23.1036 0.0112305C29.0221 2.69406 32.8318 8.57667 32.8053 14.9989C32.7827 21.4173 28.9692 27.2622 23.096 29.8922Z" fill="#00264B"/>
<path d="M9.7169 29.8998C3.80967 27.2773 -0.00754763 21.3947 1.12055e-05 14.9084C0.00757004 8.40319 3.72652 2.69038 9.70934 0C10.5106 1.77723 10.0381 3.89784 8.50748 5.10908C5.54064 7.45608 3.78699 10.9992 3.78321 14.9122C3.77943 18.81 5.5671 22.4286 8.51504 24.7869C10.0381 26.0057 10.5106 28.1188 9.7169 29.8998Z" fill="#00264B"/>
<path d="M86.8551 6.52019C86.8551 12.1424 86.8551 17.7609 86.8551 23.3794C86.8551 23.4888 85.7062 23.3228 85.5966 23.2926C85.2149 23.1869 84.8558 23.0058 84.5534 22.753C83.4196 21.8135 83.5708 20.4626 83.5708 19.1382C83.5708 17.5685 83.5708 11.9349 83.5708 11.9349C83.5708 11.9349 81.6508 18.0175 80.7438 20.9645C80.5359 21.6361 80.09 22.0436 79.3832 22.0927C78.8692 22.1304 78.3439 22.1266 77.8298 22.0814C77.1911 22.0285 76.7565 21.655 76.5637 21.0475C76.1367 19.6966 75.7285 18.342 75.3128 16.9912C74.8177 15.3762 74.3225 13.7612 73.8274 12.1424C73.8123 12.0972 73.7972 12.0481 73.7443 12.0028C73.7443 12.0632 73.7443 12.1273 73.7443 12.1877C73.7443 14.98 73.7443 17.7722 73.7443 20.5607C73.7443 21.9002 72.9053 23.0021 71.6278 23.3039C71.2612 23.3907 70.8719 23.3869 70.4675 23.4284C70.4675 17.7571 70.4675 12.1387 70.4675 6.51642C70.4675 6.49001 72.3799 6.50887 72.5651 6.52397C73.1963 6.56924 73.8048 6.68999 74.3679 6.98431C75.3581 7.50126 76.1064 8.42949 76.3823 9.51621C77.1042 12.3915 78.6916 18.8325 78.6916 18.8325C78.6916 18.8325 80.2487 12.6518 81.0046 9.64827C81.2805 8.54269 82.0175 7.5654 83.0152 7.00318C84.1944 6.34284 85.5588 6.52019 86.8551 6.52019Z" fill="#00264B"/>
<path d="M53.8041 6.54222C53.8041 6.54222 53.7965 6.75353 53.7965 6.77239C53.7965 12.2475 53.7965 23.2014 53.7965 23.2014L53.7927 23.409C53.7927 23.409 53.6983 23.4165 53.5887 23.409C51.9257 23.2882 50.6483 22.1902 50.3081 20.5677C50.2514 20.2997 50.2363 20.0205 50.2363 19.7451C50.2288 18.5225 50.2325 17.3037 50.2325 16.0812C50.2325 16.0095 50.2325 15.9378 50.2325 15.8548C48.0291 15.8548 45.8409 15.8548 43.6337 15.8548C43.6337 15.934 43.6337 16.0019 43.6337 16.0736C43.6337 17.3226 43.6375 18.5716 43.6337 19.8205C43.6299 20.779 43.32 21.6204 42.6548 22.3147C41.967 23.0316 41.1166 23.3863 40.1037 23.409C40.1037 23.3184 40.1037 23.2429 40.1037 23.1637C40.1037 17.6999 40.1037 12.2324 40.1037 6.76862C40.1037 6.68938 40.0962 6.60637 40.0999 6.5309C40.1982 6.51958 40.3305 6.55732 40.4325 6.56864C40.561 6.57996 40.6857 6.6026 40.8105 6.62901C41.0599 6.68184 41.3056 6.76485 41.5399 6.8705C42.0085 7.08181 42.4318 7.38745 42.772 7.77233C43.3465 8.41756 43.6186 9.25147 43.6299 10.108C43.6412 10.9683 43.6337 11.8286 43.6337 12.6927C43.6337 12.7569 43.6337 12.821 43.6337 12.8852C45.8484 12.8852 48.0329 12.8852 50.2325 12.8852C50.2325 12.7984 50.2325 12.7267 50.2325 12.655C50.2363 11.7419 50.225 10.8325 50.2552 9.91935C50.2854 8.95715 50.739 8.04023 51.4646 7.41386C51.7897 7.13086 52.1714 6.91201 52.572 6.76485C52.9499 6.62524 53.3997 6.50449 53.8041 6.54222Z" fill="#00264B"/>
<path d="M68.9443 6.53516C68.9443 10.3349 68.9481 13.5724 68.9443 17.3721C68.9443 18.323 68.8007 19.255 68.4152 20.1342C67.837 21.4624 66.8203 22.3303 65.4937 22.8548C64.632 23.1944 63.7325 23.3491 62.8103 23.4057C61.7748 23.4698 60.7506 23.4245 59.7377 23.1944C58.9516 23.017 58.2146 22.7189 57.5418 22.2699C56.4383 21.5341 55.7806 20.4964 55.5274 19.2135C55.414 18.6475 55.3536 18.0664 55.3498 17.4929C55.3347 13.6554 55.3422 10.3764 55.3422 6.53893C55.4443 6.53893 55.5463 6.53893 55.6484 6.53893C55.7277 6.55402 55.8109 6.57289 55.8902 6.58798C57.6968 6.90494 58.9251 8.36522 58.9251 10.2028C58.9251 12.7234 58.9175 14.6893 58.9327 17.2099C58.9327 17.5872 58.978 17.9759 59.0725 18.3419C59.3673 19.4663 60.0476 20.2323 61.2305 20.4587C62.0167 20.6096 62.8028 20.5455 63.5624 20.2776C64.3599 19.9946 64.8852 19.4437 65.1536 18.6475C65.2934 18.2287 65.3501 17.7947 65.3501 17.3533C65.3501 14.9798 65.3501 13.1611 65.3501 10.7877C65.3501 10.5009 65.3539 10.2141 65.369 9.92737C65.4446 8.34258 66.5784 6.99927 68.1318 6.64458C68.2943 6.60685 68.4568 6.57666 68.6193 6.53893C68.7176 6.53516 68.8309 6.53516 68.9443 6.53516Z" fill="#00264B"/>
<path d="M139.249 6.53516C139.249 10.3349 139.253 13.5724 139.249 17.3721C139.249 18.323 139.105 19.255 138.72 20.1342C138.142 21.4624 137.125 22.3303 135.798 22.8548C134.937 23.1944 134.037 23.3491 133.115 23.4057C132.079 23.4698 131.055 23.4245 130.042 23.1944C129.256 23.017 128.519 22.7189 127.847 22.2699C126.743 21.5341 126.085 20.4964 125.832 19.2135C125.719 18.6475 125.658 18.0664 125.654 17.4929C125.639 13.6554 125.647 10.3764 125.647 6.53893C125.749 6.53893 125.851 6.53893 125.953 6.53893C126.032 6.55402 126.116 6.57289 126.195 6.58798C128.001 6.90494 129.23 8.36522 129.23 10.2028C129.23 12.7234 129.222 14.6893 129.237 17.2099C129.237 17.5872 129.283 17.9759 129.377 18.3419C129.672 19.4663 130.352 20.2323 131.535 20.4587C132.321 20.6096 133.107 20.5455 133.867 20.2776C134.665 19.9946 135.19 19.4437 135.458 18.6475C135.598 18.2287 135.655 17.7947 135.655 17.3533C135.655 14.9798 135.655 13.1611 135.655 10.7877C135.655 10.5009 135.659 10.2141 135.674 9.92737C135.749 8.34258 136.883 6.99927 138.436 6.64458C138.599 6.60685 138.761 6.57666 138.924 6.53893C139.022 6.53516 139.136 6.53516 139.249 6.53516Z" fill="#00264B"/>
<path d="M154 6.52401C154 6.8938 154 7.26736 153.993 7.63714C153.966 8.76537 153.611 9.77662 152.908 10.6596C150.372 13.848 147.836 17.0327 145.3 20.2174C145.259 20.2702 145.221 20.3193 145.16 20.4023C148.123 20.4023 151.049 20.4023 153.989 20.4023C154.008 20.7608 153.948 21.089 153.834 21.406C153.418 22.5946 152.345 23.387 151.068 23.3908C147.67 23.4021 144.276 23.3945 140.878 23.3945C140.856 23.3945 140.833 23.3908 140.81 23.3908C140.803 23.3757 140.788 23.3606 140.788 23.3455C140.784 22.5984 140.739 21.8512 140.897 21.1117C141.064 20.3381 141.392 19.6439 141.887 19.0288C144.401 15.9045 146.914 12.7802 149.427 9.6521C149.469 9.59927 149.507 9.54645 149.571 9.46343C146.71 9.46343 143.891 9.46343 141.026 9.46343C141.06 9.21817 141.075 8.99554 141.124 8.78046C141.396 7.60319 142.398 6.70891 143.603 6.55043C143.641 6.54665 143.675 6.52779 143.713 6.5127C147.141 6.52402 150.569 6.52401 154 6.52401Z" fill="#00264B"/>
<path d="M124.113 22.0323C124.113 22.7983 123.504 23.4058 122.737 23.4058C121.928 23.402 121.354 22.7228 121.369 22.0248C121.384 21.2701 121.985 20.6588 122.744 20.6626C123.504 20.6626 124.109 21.2739 124.113 22.0323Z" fill="#E87525"/>
<path d="M98.8435 7.25591C98.7188 6.90122 98.5525 6.61822 98.1708 6.50879H94.8864C94.5727 6.61444 94.3724 6.81443 94.259 7.13516C92.3882 12.3801 88.4539 23.3868 88.4539 23.3868H90.7102C91.6475 23.3868 92.3504 22.8812 92.6452 21.9945C93.2688 20.055 96.4889 10.2557 96.4889 10.2557C96.4889 10.2557 99.9811 21.1832 100.238 21.9681C100.54 22.8888 101.232 23.3868 102.207 23.3868H104.535C104.535 23.3868 100.714 12.5725 98.8435 7.25591Z" fill="#00264B"/>
<path d="M119.834 6.71987C119.834 6.65195 119.838 6.58403 119.842 6.51611C119.729 6.51611 119.615 6.51611 119.502 6.51611C119.351 6.55007 119.196 6.58026 119.045 6.61799C117.563 6.97268 116.527 8.2707 116.527 9.79135C116.524 12.2289 116.527 14.6627 116.527 17.1003C116.527 17.1682 116.527 17.2323 116.527 17.3003C116.516 17.3078 116.505 17.3116 116.493 17.3191C116.459 17.2738 116.425 17.2286 116.395 17.1833C114.694 14.4401 112.997 11.6931 111.293 8.9499C110.45 7.59151 109.226 6.80289 107.642 6.56894C107.555 6.55762 107.468 6.53875 107.385 6.52366C106.947 6.52366 106.504 6.52366 106.066 6.52366C106.066 12.1459 106.066 17.7644 106.066 23.3979C106.452 23.3866 106.803 23.3338 107.143 23.2093C108.474 22.7338 109.331 21.5151 109.331 20.1076C109.331 17.5116 109.331 14.9193 109.331 12.3233C109.331 12.2591 109.331 12.195 109.331 12.1308C109.407 12.1723 109.445 12.2251 109.479 12.2817C111.236 15.0325 112.994 17.7832 114.747 20.5378C115.726 22.0773 117.106 23.0168 118.908 23.3225C119.211 23.3753 119.517 23.3829 119.834 23.413C119.834 23.3149 119.834 23.2546 119.834 23.1904C119.831 21.4056 119.834 8.88953 119.834 6.71987Z" fill="#00264B"/>
</svg>
