<svg width="201" height="30" viewBox="0 0 201 30" fill="none" xmlns="http://www.w3.org/2000/svg">
<path d="M46.5003 28.5H45.9869V27.4322H44.9858V28.5H44.4725V26.0084H44.9858V27.018H45.9869V26.0084H46.5003V28.5ZM57.0052 27.3107C57.0052 27.556 56.9619 27.771 56.8752 27.9558C56.7885 28.1406 56.6641 28.2832 56.5021 28.3836C56.3413 28.484 56.1564 28.5342 55.9477 28.5342C55.7412 28.5342 55.5569 28.4846 55.3949 28.3853C55.2329 28.2861 55.1074 28.1446 55.0185 27.961C54.9295 27.7761 54.8844 27.5639 54.8833 27.3244V27.2011C54.8833 26.9559 54.9272 26.7402 55.015 26.5543C55.104 26.3672 55.2289 26.224 55.3898 26.1248C55.5518 26.0244 55.7366 25.9742 55.9442 25.9742C56.1519 25.9742 56.3361 26.0244 56.497 26.1248C56.659 26.224 56.7839 26.3672 56.8718 26.5543C56.9607 26.7402 57.0052 26.9553 57.0052 27.1994V27.3107ZM56.485 27.1977C56.485 26.9365 56.4382 26.738 56.3447 26.6022C56.2511 26.4664 56.1177 26.3986 55.9442 26.3986C55.772 26.3986 55.6391 26.4659 55.5455 26.6005C55.452 26.734 55.4046 26.9302 55.4035 27.1892V27.3107C55.4035 27.5651 55.4503 27.7624 55.5438 27.9028C55.6374 28.0431 55.772 28.1133 55.9477 28.1133C56.1199 28.1133 56.2523 28.0459 56.3447 27.9113C56.4371 27.7756 56.4839 27.5782 56.485 27.3192V27.1977ZM65.3865 28.5V26.0084H66.2592C66.5615 26.0084 66.7908 26.0666 66.9471 26.1829C67.1034 26.2982 67.1816 26.4676 67.1816 26.6912C67.1816 26.8133 67.1502 26.9211 67.0875 27.0146C67.0247 27.107 66.9374 27.1749 66.8256 27.2183C66.9534 27.2502 67.0538 27.3147 67.1268 27.4116C67.201 27.5086 67.2381 27.6273 67.2381 27.7676C67.2381 28.0072 67.1616 28.1885 67.0087 28.3118C66.8559 28.435 66.638 28.4977 66.355 28.5H65.3865ZM65.8998 27.4151V28.0876H66.3396C66.4606 28.0876 66.5547 28.0591 66.622 28.002C66.6904 27.9438 66.7247 27.864 66.7247 27.7624C66.7247 27.5343 66.6066 27.4185 66.3704 27.4151H65.8998ZM65.8998 27.0523H66.2797C66.5387 27.0477 66.6682 26.9445 66.6682 26.7425C66.6682 26.6296 66.6351 26.5486 66.5689 26.4995C66.5039 26.4493 66.4007 26.4242 66.2592 26.4242H65.8998V27.0523ZM77.6797 27.3107C77.6797 27.556 77.6363 27.771 77.5496 27.9558C77.4629 28.1406 77.3385 28.2832 77.1765 28.3836C77.0157 28.484 76.8309 28.5342 76.6221 28.5342C76.4156 28.5342 76.2314 28.4846 76.0694 28.3853C75.9074 28.2861 75.7819 28.1446 75.6929 27.961C75.6039 27.7761 75.5588 27.5639 75.5577 27.3244V27.2011C75.5577 26.9559 75.6016 26.7402 75.6894 26.5543C75.7784 26.3672 75.9034 26.224 76.0642 26.1248C76.2262 26.0244 76.411 25.9742 76.6187 25.9742C76.8263 25.9742 77.0105 26.0244 77.1714 26.1248C77.3334 26.224 77.4583 26.3672 77.5462 26.5543C77.6352 26.7402 77.6797 26.9553 77.6797 27.1994V27.3107ZM77.1594 27.1977C77.1594 26.9365 77.1127 26.738 77.0191 26.6022C76.9256 26.4664 76.7921 26.3986 76.6187 26.3986C76.4464 26.3986 76.3135 26.4659 76.2199 26.6005C76.1264 26.734 76.079 26.9302 76.0779 27.1892V27.3107C76.0779 27.5651 76.1247 27.7624 76.2182 27.9028C76.3118 28.0431 76.4464 28.1133 76.6221 28.1133C76.7944 28.1133 76.9267 28.0459 77.0191 27.9113C77.1115 27.7756 77.1583 27.5782 77.1594 27.3192V27.1977ZM88.0169 27.67C87.9975 27.9381 87.8982 28.1492 87.7191 28.3032C87.5411 28.4572 87.3061 28.5342 87.0141 28.5342C86.6946 28.5342 86.4431 28.427 86.2594 28.2125C86.0769 27.9969 85.9856 27.7014 85.9856 27.3261V27.1738C85.9856 26.9342 86.0278 26.7231 86.1122 26.5406C86.1966 26.3581 86.317 26.2183 86.4733 26.1213C86.6307 26.0232 86.8133 25.9742 87.0209 25.9742C87.3084 25.9742 87.54 26.0512 87.7157 26.2052C87.8914 26.3592 87.9929 26.5754 88.0203 26.8538H87.5069C87.4944 26.6929 87.4493 26.5765 87.3717 26.5047C87.2953 26.4316 87.1783 26.3951 87.0209 26.3951C86.8498 26.3951 86.7214 26.4567 86.6359 26.58C86.5514 26.702 86.5081 26.892 86.5058 27.1498V27.3381C86.5058 27.6073 86.5463 27.8041 86.6273 27.9284C86.7095 28.0528 86.8384 28.115 87.0141 28.115C87.1726 28.115 87.2907 28.079 87.3683 28.0072C87.447 27.9341 87.4921 27.8218 87.5035 27.67H88.0169ZM98.1864 26.4242H97.4231V28.5H96.9098V26.4242H96.1568V26.0084H98.1864V26.4242ZM108.517 28.5H108.003V27.4322H107.002V28.5H106.489V26.0084H107.002V27.018H108.003V26.0084H108.517V28.5ZM119.022 27.3107C119.022 27.556 118.978 27.771 118.892 27.9558C118.805 28.1406 118.681 28.2832 118.519 28.3836C118.358 28.484 118.173 28.5342 117.964 28.5342C117.758 28.5342 117.573 28.4846 117.411 28.3853C117.249 28.2861 117.124 28.1446 117.035 27.961C116.946 27.7761 116.901 27.5639 116.9 27.3244V27.2011C116.9 26.9559 116.944 26.7402 117.031 26.5543C117.12 26.3672 117.245 26.224 117.406 26.1248C117.568 26.0244 117.753 25.9742 117.961 25.9742C118.168 25.9742 118.353 26.0244 118.513 26.1248C118.675 26.224 118.8 26.3672 118.888 26.5543C118.977 26.7402 119.022 26.9553 119.022 27.1994V27.3107ZM118.501 27.1977C118.501 26.9365 118.455 26.738 118.361 26.6022C118.268 26.4664 118.134 26.3986 117.961 26.3986C117.788 26.3986 117.655 26.4659 117.562 26.6005C117.468 26.734 117.421 26.9302 117.42 27.1892V27.3107C117.42 27.5651 117.467 27.7624 117.56 27.9028C117.654 28.0431 117.788 28.1133 117.964 28.1133C118.136 28.1133 118.269 28.0459 118.361 27.9113C118.454 27.7756 118.5 27.5782 118.501 27.3192V27.1977ZM128.897 26.0084H129.412V28.5H128.897V26.8452L127.899 28.5H127.386V26.0084H127.899V27.6666L128.897 26.0084ZM128.996 25.353C128.996 25.5047 128.941 25.6274 128.832 25.7209C128.723 25.8145 128.581 25.8612 128.404 25.8612C128.227 25.8612 128.084 25.815 127.974 25.7226C127.866 25.6302 127.812 25.507 127.812 25.353H128.163C128.163 25.4249 128.184 25.4808 128.226 25.5207C128.269 25.5595 128.329 25.5789 128.404 25.5789C128.478 25.5789 128.536 25.5595 128.579 25.5207C128.621 25.4808 128.642 25.4249 128.642 25.353H128.996ZM148.776 28.5H148.26V26.4242H147.263V28.5H146.749V26.0084H148.776V28.5ZM159.282 27.3107C159.282 27.556 159.239 27.771 159.152 27.9558C159.065 28.1406 158.941 28.2832 158.779 28.3836C158.618 28.484 158.433 28.5342 158.225 28.5342C158.018 28.5342 157.834 28.4846 157.672 28.3853C157.51 28.2861 157.384 28.1446 157.295 27.961C157.206 27.7761 157.161 27.5639 157.16 27.3244V27.2011C157.16 26.9559 157.204 26.7402 157.292 26.5543C157.381 26.3672 157.506 26.224 157.667 26.1248C157.829 26.0244 158.014 25.9742 158.221 25.9742C158.429 25.9742 158.613 26.0244 158.774 26.1248C158.936 26.224 159.061 26.3672 159.149 26.5543C159.238 26.7402 159.282 26.9553 159.282 27.1994V27.3107ZM158.762 27.1977C158.762 26.9365 158.715 26.738 158.622 26.6022C158.528 26.4664 158.395 26.3986 158.221 26.3986C158.049 26.3986 157.916 26.4659 157.822 26.6005C157.729 26.734 157.682 26.9302 157.68 27.1892V27.3107C157.68 27.5651 157.727 27.7624 157.821 27.9028C157.914 28.0431 158.049 28.1133 158.225 28.1133C158.397 28.1133 158.529 28.0459 158.622 27.9113C158.714 27.7756 158.761 27.5782 158.762 27.3192V27.1977ZM168.177 27.6221V28.5H167.663V26.0084H168.635C168.822 26.0084 168.987 26.0426 169.128 26.1111C169.271 26.1795 169.38 26.2771 169.457 26.4037C169.533 26.5292 169.571 26.6724 169.571 26.8332C169.571 27.0774 169.488 27.2702 169.32 27.4116C169.153 27.552 168.922 27.6221 168.627 27.6221H168.177ZM168.177 27.2063H168.635C168.771 27.2063 168.874 27.1743 168.945 27.1105C169.017 27.0466 169.053 26.9553 169.053 26.8366C169.053 26.7146 169.017 26.6159 168.945 26.5406C168.873 26.4653 168.774 26.4265 168.647 26.4242H168.177V27.2063ZM179.809 26.4242H179.046V28.5H178.533V26.4242H177.78V26.0084H179.809V26.4242ZM189.313 27.9866H188.413L188.242 28.5H187.696L188.624 26.0084H189.099L190.032 28.5H189.486L189.313 27.9866ZM188.552 27.5708H189.175L188.861 26.6381L188.552 27.5708ZM200.33 26.0084V28.5H199.815V26.4242H199.151L199.11 27.3038C199.093 27.6004 199.055 27.8343 198.997 28.0054C198.939 28.1754 198.854 28.3004 198.742 28.3802C198.63 28.4589 198.477 28.4989 198.283 28.5H198.15V28.0876L198.235 28.079C198.364 28.0619 198.456 27.9878 198.511 27.8566C198.567 27.7242 198.602 27.4892 198.617 27.1515L198.66 26.0084H200.33Z" fill="#E87525"/>
<path d="M64.0956 4.48604V23.972H60.6067V15.0367H48.0467V23.972H44.5579V4.48604H48.0467V11.5571H60.6067V4.48604H64.0956Z" fill="#00264B"/>
<path d="M86.4445 4.48608V14.2291C86.4445 19.6018 82.0626 23.9721 76.6756 23.9721C71.2886 23.9721 66.9067 19.6018 66.9067 14.2291V4.48608H70.392V14.2291C70.392 17.6799 73.212 20.4924 76.672 20.4924C80.132 20.4924 82.952 17.6799 82.952 14.2291V4.48608H86.4445Z" fill="#00264B"/>
<path d="M108.794 4.48608V23.9721H105.305V11.5571L101.871 14.175L99.0265 16.3745L96.1781 14.175L92.7441 11.5571V23.9721H89.2559V4.48608L92.7441 7.15801L99.0229 11.9754L105.302 7.15801L108.794 4.48608Z" fill="#00264B"/>
<path d="M130.44 23.9721H126.525L124.736 20.4924L120.46 12.1413L116.183 20.4924L114.395 23.9721H110.48L112.269 20.4924L120.46 4.48608L128.651 20.4924L130.44 23.9721Z" fill="#00264B"/>
<path d="M151.664 4.51509V24.1123L148.175 21.4251L135.615 11.7099V24.1123H132.126V4.56949L135.615 7.25667L148.175 16.9718V4.48608L151.664 4.51509Z" fill="#00264B"/>
<path d="M174.503 4.48608V14.2992C174.503 17.7758 171.676 20.6076 168.206 20.6076C164.736 20.6076 161.91 17.7758 161.91 14.2992V4.48608H158.411V14.2992C158.411 19.7104 162.805 24.1123 168.206 24.1123C173.607 24.1123 178.001 19.7104 178.001 14.2992V4.48608H174.503Z" fill="#00264B"/>
<path d="M187.958 20.5795L190.589 17.187L192.8 14.3272L197.669 7.99076L200.384 4.48608H195.99H180.85V7.99076H193.303L190.617 11.4674L188.406 14.3272L183.592 20.5795L180.906 24.0842L180.878 24.1123H185.3L185.328 24.0842H200.467V20.5795H187.958Z" fill="#00264B"/>
<rect x="154.346" y="20.6076" width="3.50467" height="3.50467" fill="#E87525"/>
<path d="M19.1185 25.5774C13.2296 25.7079 7.80695 20.8746 7.81104 14.3243C7.81513 7.79027 13.2419 3.05493 19.1431 3.06716C25.1056 3.0794 30.4424 7.96973 30.4179 14.3855C30.3933 20.7237 25.1056 25.7079 19.1185 25.5774Z" fill="#E87525"/>
<path d="M31.6814 28.7016L29.1541 25.8262C32.4666 22.9303 34.3723 18.7701 34.3927 14.41C34.4091 10.0213 32.5034 5.83252 29.1581 2.92035L31.6814 0.040802C35.8649 3.68306 38.2491 8.92823 38.2287 14.4263C38.2041 19.8835 35.82 25.0838 31.6814 28.7016Z" fill="#00264B"/>
<path d="M6.5514 28.7383C2.38419 25.1205 -0.00408427 19.8672 5.24334e-06 14.3202C0.00409475 8.73652 2.33102 3.65041 6.55549 0L9.06645 2.89178C5.69669 5.80395 3.84005 9.86223 3.83596 14.3243C3.83187 18.8271 5.68851 22.9181 9.06645 25.8506L6.5514 28.7383Z" fill="#00264B"/>
</svg>
