<svg width="20" height="20" viewBox="0 0 20 20" fill="none" xmlns="http://www.w3.org/2000/svg">
<path d="M9.99996 7.29166C8.50421 7.29166 7.29163 8.50424 7.29163 9.99999C7.29163 11.4957 8.50421 12.7083 9.99996 12.7083C11.4957 12.7083 12.7083 11.4957 12.7083 9.99999C12.7083 8.50424 11.4957 7.29166 9.99996 7.29166Z" fill="black" fill-opacity="0.2"/>
<path fill-rule="evenodd" clip-rule="evenodd" d="M5.64132 2.56789C8.51478 2.24674 11.4854 2.24674 14.3588 2.56789C15.9408 2.7447 17.2168 3.99118 17.4024 5.57872C17.746 8.51625 17.746 11.4837 17.4024 14.4212C17.2168 16.0088 15.9408 17.2553 14.3588 17.4321C11.4854 17.7532 8.51478 17.7532 5.64132 17.4321C4.05932 17.2553 2.78332 16.0088 2.59764 14.4212C2.25407 11.4837 2.25407 8.51625 2.59764 5.57872C2.78332 3.99118 4.05932 2.7447 5.64132 2.56789ZM14.1667 5C13.7064 5 13.3334 5.3731 13.3334 5.83333C13.3334 6.29356 13.7064 6.66666 14.1667 6.66666C14.6269 6.66666 15 6.29356 15 5.83333C15 5.3731 14.6269 5 14.1667 5ZM6.0417 10C6.0417 7.81387 7.81391 6.04166 10 6.04166C12.1862 6.04166 13.9584 7.81387 13.9584 10C13.9584 12.1862 12.1862 13.9583 10 13.9583C7.81391 13.9583 6.0417 12.1862 6.0417 10Z" fill="black" fill-opacity="0.2"/>
</svg>
