<svg width="24" height="24" viewBox="0 0 24 24" fill="none" xmlns="http://www.w3.org/2000/svg">
<path fill-rule="evenodd" clip-rule="evenodd" d="M14.3763 12.4769C16.0462 10.1337 15.8301 6.85958 13.7278 4.75736C11.3847 2.41421 7.58574 2.41421 5.24259 4.75736C2.89944 7.1005 2.89944 10.8995 5.24259 13.2426C7.34482 15.3449 10.6189 15.561 12.9621 13.8911L18.6776 19.6066L20.0918 18.1924L14.3763 12.4769ZM12.3136 6.17157C13.8757 7.73367 13.8757 10.2663 12.3136 11.8284C10.7515 13.3905 8.2189 13.3905 6.6568 11.8284C5.09471 10.2663 5.09471 7.73367 6.6568 6.17157C8.2189 4.60948 10.7515 4.60948 12.3136 6.17157Z" fill="black"/>
</svg>
