<svg width="20" height="20" viewBox="0 0 20 20" fill="none" xmlns="http://www.w3.org/2000/svg">
<path fill-rule="evenodd" clip-rule="evenodd" d="M14.0217 16.5752L14.0223 16.5737L14.0368 16.5375L16.5358 3.93827V3.89734C16.5358 3.58342 16.4198 3.30937 16.1674 3.14499C15.9465 3.00111 15.6925 2.99087 15.5145 3.00438C15.326 3.01867 15.1485 3.06569 15.0255 3.10482C14.9623 3.12496 14.9094 3.14435 14.8715 3.15902C14.8525 3.16639 14.837 3.17264 14.8259 3.17729L14.8149 3.18192L0.881699 8.64771L0.877866 8.64904C0.870341 8.65179 0.860391 8.65554 0.848366 8.66021C0.824408 8.66954 0.791791 8.68287 0.753474 8.70029C0.678241 8.73437 0.574291 8.78696 0.468874 8.85912C0.289833 8.98179 -0.0511006 9.27204 0.0064661 9.73221C0.0541494 10.1134 0.316908 10.3555 0.49405 10.4808C0.589 10.548 0.679849 10.5965 0.746374 10.6281C0.780074 10.6442 0.808708 10.6565 0.830033 10.6651C0.840724 10.6695 0.849658 10.673 0.856575 10.6756L0.865433 10.6789L0.871091 10.681L3.30879 11.5017C3.30057 11.6546 3.31573 11.8105 3.35629 11.9645L4.57737 16.5965C4.72214 17.1456 5.219 17.5282 5.78697 17.5278C6.29608 17.5275 6.74761 17.2195 6.93942 16.76L8.8458 14.7215L12.12 17.2317L12.1666 17.252C12.464 17.3819 12.742 17.423 12.996 17.3883C13.2498 17.3536 13.4514 17.2472 13.6029 17.126C13.752 17.0068 13.854 16.8722 13.9183 16.7709C13.951 16.7194 13.9753 16.6741 13.9921 16.64C14.0006 16.623 14.0073 16.6085 14.0123 16.5972L14.0186 16.5827L14.0209 16.5774L14.0217 16.5752ZM4.56496 11.6458C4.53721 11.5405 4.58077 11.4294 4.67268 11.371L12.9411 6.12027C12.9411 6.12027 13.4274 5.82502 13.41 6.12027C13.41 6.12027 13.4968 6.1724 13.2361 6.41551C12.989 6.64641 7.34313 12.0973 6.77182 12.6489C6.73884 12.6807 6.71916 12.7172 6.70753 12.7615L5.78603 16.2778L4.56496 11.6458Z" fill="black" fill-opacity="0.2"/>
</svg>
