<svg width="20" height="20" viewBox="0 0 20 20" fill="none" xmlns="http://www.w3.org/2000/svg">
<path d="M18.1747 5.18938C18.223 5.12207 18.1517 5.03516 18.0744 5.0651C17.5255 5.27788 16.9517 5.42143 16.3666 5.49218C17.0182 5.10291 17.521 4.51034 17.7998 3.80878C17.8282 3.73732 17.7502 3.6735 17.6828 3.71068C17.0772 4.04513 16.4241 4.28595 15.7457 4.42465C15.7172 4.43046 15.688 4.42079 15.6681 4.39975C15.1589 3.86253 14.4887 3.50483 13.7581 3.38122C13.0121 3.25502 12.2453 3.37998 11.5781 3.7365C10.9107 4.09303 10.3807 4.66095 10.0709 5.35121C9.7764 6.00751 9.69699 6.7391 9.84224 7.4417C9.85349 7.49622 9.81082 7.54768 9.75524 7.54423C8.43524 7.46225 7.14545 7.11114 5.96544 6.51206C4.78844 5.9145 3.74616 5.0832 2.9021 4.06943C2.86464 4.02443 2.79364 4.03025 2.76634 4.08205C2.50371 4.58043 2.36619 5.13593 2.36657 5.70051C2.3655 6.26249 2.50341 6.81603 2.76803 7.31181C3.03264 7.8076 3.41575 8.23027 3.88324 8.54218C3.38746 8.52868 2.90136 8.40609 2.45928 8.1839C2.4023 8.15527 2.33396 8.19604 2.33693 8.25973C2.3714 9.00076 2.64344 9.74467 3.11433 10.3155C3.61543 10.9228 4.31094 11.3385 5.08324 11.4922C4.78594 11.5827 4.47729 11.6303 4.16657 11.6338C3.99745 11.6318 3.82866 11.6194 3.66118 11.5965C3.59908 11.588 3.54838 11.647 3.57011 11.7058C3.80046 12.3287 4.20739 12.8723 4.74246 13.269C5.3145 13.6932 6.00454 13.9285 6.71657 13.9422C5.51424 14.8883 4.0298 15.4046 2.4999 15.4088C2.34269 15.4093 2.18556 15.4043 2.0288 15.3936C1.94046 15.3876 1.89984 15.5053 1.97598 15.5504C3.46662 16.4351 5.17039 16.9026 6.90824 16.9005C8.19131 16.9138 9.46415 16.6713 10.6525 16.1873C11.8408 15.7031 12.9207 14.9871 13.8292 14.0809C14.7377 13.1748 15.4566 12.0967 15.9437 10.9096C16.4308 9.72251 16.6766 8.45026 16.6666 7.16718V6.76732C16.6666 6.74101 16.679 6.71627 16.7 6.70041C17.2652 6.27363 17.7623 5.7641 18.1747 5.18938Z" fill="black" fill-opacity="0.2"/>
</svg>
