<svg width="18" height="11" viewBox="0 0 18 11" fill="none" xmlns="http://www.w3.org/2000/svg">
<path d="M16.9196 10.3175H15.0183C14.299 10.3175 14.0827 9.735 12.7926 8.44492C11.6667 7.35942 11.191 7.22384 10.9057 7.22384C10.5121 7.22384 10.4039 7.332 10.4039 7.87542V9.58509C10.4039 10.0478 10.2541 10.3188 9.04608 10.3188C7.87375 10.24 6.73685 9.88384 5.72911 9.27959C4.72137 8.67534 3.8716 7.84034 3.24979 6.84334C1.77357 5.00592 0.746417 2.84945 0.25 0.545351C0.25 0.259968 0.358158 0.00195109 0.901558 0.00195109H2.80152C3.29018 0.00195109 3.46611 0.219576 3.65767 0.721276C4.58028 3.437 6.15445 5.79825 6.79298 5.79825C7.03797 5.79825 7.14483 5.69009 7.14483 5.07892V2.28242C7.06403 1.00666 6.38641 0.898501 6.38641 0.437193C6.39511 0.315518 6.45087 0.202026 6.54185 0.120768C6.63283 0.0395178 6.75189 -0.00309891 6.87378 0.00195109H9.8605C10.2684 0.00195109 10.4039 0.205243 10.4039 0.693909V4.46775C10.4039 4.87567 10.5798 5.01117 10.7023 5.01117C10.9473 5.01117 11.1363 4.87567 11.5846 4.42734C12.5474 3.25318 13.3341 1.94501 13.9198 0.544051C13.9797 0.375768 14.0929 0.231701 14.2423 0.133818C14.3918 0.035943 14.5691 -0.0103739 14.7473 0.00195109H16.6485C17.218 0.00195109 17.3392 0.287334 17.218 0.693909C16.5267 2.24258 15.6713 3.71267 14.6664 5.07892C14.4618 5.39167 14.3798 5.55459 14.6664 5.92075C14.8554 6.20609 15.5213 6.76259 15.9696 7.29159C16.621 7.94142 17.162 8.69325 17.5711 9.51734C17.734 10.0464 17.4617 10.3175 16.9196 10.3175Z" fill="black" fill-opacity="0.2"/>
</svg>
