<svg width="30" height="30" viewBox="0 0 30 30" fill="none" xmlns="http://www.w3.org/2000/svg">
<rect width="30" height="30" rx="5" fill="#F1F1F1"/>
<path d="M22.9196 20.3175H21.0183C20.299 20.3175 20.0827 19.735 18.7926 18.4449C17.6667 17.3594 17.191 17.2238 16.9057 17.2238C16.5121 17.2238 16.4039 17.332 16.4039 17.8754V19.5851C16.4039 20.0478 16.2541 20.3188 15.0461 20.3188C13.8738 20.24 12.7369 19.8838 11.7291 19.2796C10.7214 18.6753 9.8716 17.8403 9.24979 16.8433C7.77357 15.0059 6.74642 12.8495 6.25 10.5454C6.25 10.26 6.35816 10.002 6.90156 10.002H8.80152C9.29018 10.002 9.46611 10.2196 9.65767 10.7213C10.5803 13.437 12.1544 15.7983 12.793 15.7983C13.038 15.7983 13.1448 15.6901 13.1448 15.0789V12.2824C13.064 11.0067 12.3864 10.8985 12.3864 10.4372C12.3951 10.3155 12.4509 10.202 12.5419 10.1208C12.6328 10.0395 12.7519 9.9969 12.8738 10.002H15.8605C16.2684 10.002 16.4039 10.2052 16.4039 10.6939V14.4678C16.4039 14.8757 16.5798 15.0112 16.7023 15.0112C16.9473 15.0112 17.1363 14.8757 17.5846 14.4273C18.5474 13.2532 19.3341 11.945 19.9198 10.5441C19.9797 10.3758 20.0929 10.2317 20.2423 10.1338C20.3918 10.0359 20.5691 9.98963 20.7473 10.002H22.6485C23.218 10.002 23.3392 10.2873 23.218 10.6939C22.5267 12.2426 21.6713 13.7127 20.6664 15.0789C20.4618 15.3917 20.3798 15.5546 20.6664 15.9208C20.8554 16.2061 21.5213 16.7626 21.9696 17.2916C22.621 17.9414 23.162 18.6933 23.5711 19.5173C23.734 20.0464 23.4617 20.3175 22.9196 20.3175Z" fill="black" fill-opacity="0.2"/>
</svg>
