<svg width="20" height="20" viewBox="0 0 20 20" fill="none" xmlns="http://www.w3.org/2000/svg">
<path fill-rule="evenodd" clip-rule="evenodd" d="M5.82413 4.07543C8.60389 3.85795 11.3963 3.85795 14.1761 4.07543L16.0433 4.22151C17.0834 4.30288 17.9342 5.08238 18.1061 6.11135C18.5363 8.68591 18.5363 11.3141 18.1061 13.8887C17.9342 14.9176 17.0834 15.6971 16.0433 15.7785L14.1761 15.9246C11.3963 16.142 8.60389 16.142 5.82413 15.9246L3.95688 15.7785C2.91682 15.6971 2.06597 14.9176 1.89404 13.8887C1.46387 11.3141 1.46387 8.68591 1.89404 6.11135C2.06597 5.08238 2.91682 4.30288 3.95688 4.22151L5.82413 4.07543ZM8.33339 12.0584V7.94154C8.33339 7.74722 8.54539 7.62719 8.71198 7.72717L12.1428 9.78566C12.3046 9.88274 12.3046 10.1172 12.1428 10.2143L8.71198 12.2728C8.54539 12.3728 8.33339 12.2527 8.33339 12.0584Z" fill="black" fill-opacity="0.2"/>
</svg>
